<svg xmlns="http://www.w3.org/2000/svg" xmlns:xlink="http://www.w3.org/1999/xlink" width="500" zoomAndPan="magnify" viewBox="0 0 375 155.999997" height="208" preserveAspectRatio="xMidYMid meet" version="1.0"><defs><g/></defs><g fill="#ffffff" fill-opacity="1"><g transform="translate(145.096344, 65.010754)"><g><path d="M 61.265625 0 L 4.421875 0 L 4.421875 -40.515625 L 61.265625 -40.515625 L 61.265625 -17.796875 L 52.421875 -17.796875 L 52.421875 -31.671875 L 13.28125 -31.671875 L 13.28125 -8.84375 L 61.265625 -8.84375 Z M 61.265625 0 "/></g></g></g><g fill="#ffffff" fill-opacity="1"><g transform="translate(169.146469, 77.738365)"><g><path d="M 61.265625 0 L 4.421875 0 L 4.421875 -40.515625 L 26.84375 -40.515625 L 26.84375 -31.671875 L 13.28125 -31.671875 L 13.28125 -8.84375 L 52.421875 -8.84375 L 52.421875 -31.671875 L 38.84375 -31.671875 L 38.84375 -40.515625 L 61.265625 -40.515625 Z M 61.265625 0 "/></g></g></g><g fill="#ffffff" fill-opacity="1"><g transform="translate(18.774874, 115.847511)"><g><path d="M 26.257812 -3.863281 L 7.640625 -3.863281 C 6.195312 -3.863281 5.457031 -4.484375 5.457031 -5.753906 L 5.457031 -15.488281 C 5.457031 -16.523438 6.578125 -17.40625 7.640625 -17.40625 L 26.257812 -17.40625 L 26.257812 -21.183594 L 7.640625 -21.183594 C 4.515625 -21.183594 1.445312 -18.558594 1.445312 -15.488281 L 1.445312 -5.753906 C 1.445312 -2.390625 4.277344 -0.03125 7.640625 -0.03125 L 26.257812 -0.03125 Z M 26.257812 -3.863281 "/></g></g></g><g fill="#ffffff" fill-opacity="1"><g transform="translate(47.128138, 115.847511)"><g><path d="M 27.144531 -15.488281 C 27.144531 -18.644531 24.046875 -21.183594 20.976562 -21.183594 L 7.640625 -21.183594 C 4.515625 -21.183594 1.445312 -18.644531 1.445312 -15.488281 L 1.445312 -5.753906 C 1.445312 -2.390625 4.21875 -0.03125 7.640625 -0.03125 L 20.976562 -0.03125 C 24.3125 -0.03125 27.144531 -2.417969 27.144531 -5.753906 Z M 23.160156 -5.753906 C 23.160156 -4.484375 22.421875 -3.863281 20.976562 -3.863281 L 7.640625 -3.863281 C 6.195312 -3.863281 5.457031 -4.484375 5.457031 -5.753906 L 5.457031 -15.488281 C 5.457031 -16.523438 6.578125 -17.40625 7.640625 -17.40625 L 20.976562 -17.40625 C 22.039062 -17.40625 23.160156 -16.523438 23.160156 -15.488281 Z M 23.160156 -5.753906 "/></g></g></g><g fill="#ffffff" fill-opacity="1"><g transform="translate(76.632038, 115.847511)"><g><path d="M 27.144531 -21.183594 L 23.160156 -21.183594 L 23.160156 -5.753906 C 23.160156 -4.484375 22.421875 -3.863281 20.976562 -3.863281 L 18.234375 -3.863281 C 16.757812 -3.863281 16.019531 -4.484375 16.019531 -5.753906 L 16.078125 -15.488281 C 16.109375 -18.851562 13.1875 -21.183594 9.882812 -21.183594 L 7.109375 -21.183594 C 3.777344 -21.183594 0.945312 -18.882812 0.945312 -15.488281 L 0.945312 -0.03125 L 4.957031 -0.03125 L 4.957031 -15.488281 C 4.957031 -16.757812 5.664062 -17.40625 7.109375 -17.40625 L 9.882812 -17.40625 C 11.328125 -17.40625 12.066406 -16.757812 12.066406 -15.488281 L 12.066406 -5.753906 C 12.066406 -2.539062 14.722656 -0.03125 18.234375 -0.03125 L 20.976562 -0.03125 C 24.3125 -0.03125 27.144531 -2.417969 27.144531 -5.753906 Z M 27.144531 -21.183594 "/></g></g></g><g fill="#ffffff" fill-opacity="1"><g transform="translate(106.224458, 115.847511)"><g><path d="M 26.050781 -21.183594 L 1.445312 -21.183594 L 1.445312 -17.40625 L 11.714844 -17.40625 L 11.714844 -0.03125 L 15.667969 -0.03125 L 15.667969 -17.40625 L 26.050781 -17.40625 Z M 26.050781 -21.183594 "/></g></g></g><g fill="#ffffff" fill-opacity="1"><g transform="translate(134.400684, 115.847511)"><g><path d="M 27.144531 -6.902344 C 27.144531 -8.261719 26.613281 -9.5 25.578125 -10.621094 C 26.613281 -11.714844 27.144531 -12.921875 27.144531 -14.308594 L 27.144531 -15.460938 C 27.144531 -18.824219 24.339844 -21.152344 20.976562 -21.152344 L 1.296875 -21.152344 L 1.296875 -0.03125 L 5.28125 -0.03125 L 5.28125 -17.378906 L 20.976562 -17.378906 C 22.421875 -17.378906 23.160156 -16.730469 23.160156 -15.460938 L 23.160156 -14.308594 C 23.160156 -13.128906 22.421875 -12.539062 20.976562 -12.539062 L 6.519531 -12.539062 L 6.519531 -8.644531 L 20.976562 -8.644531 C 22.128906 -8.644531 23.160156 -7.996094 23.160156 -6.902344 L 23.160156 -0.03125 L 27.144531 -0.03125 Z M 27.144531 -6.902344 "/></g></g></g><g fill="#ffffff" fill-opacity="1"><g transform="translate(164.465159, 115.847511)"><g><path d="M 27.144531 -15.488281 C 27.144531 -18.644531 24.046875 -21.183594 20.976562 -21.183594 L 7.640625 -21.183594 C 4.515625 -21.183594 1.445312 -18.644531 1.445312 -15.488281 L 1.445312 -5.753906 C 1.445312 -2.390625 4.21875 -0.03125 7.640625 -0.03125 L 20.976562 -0.03125 C 24.3125 -0.03125 27.144531 -2.417969 27.144531 -5.753906 Z M 23.160156 -5.753906 C 23.160156 -4.484375 22.421875 -3.863281 20.976562 -3.863281 L 7.640625 -3.863281 C 6.195312 -3.863281 5.457031 -4.484375 5.457031 -5.753906 L 5.457031 -15.488281 C 5.457031 -16.523438 6.578125 -17.40625 7.640625 -17.40625 L 20.976562 -17.40625 C 22.039062 -17.40625 23.160156 -16.523438 23.160156 -15.488281 Z M 23.160156 -5.753906 "/></g></g></g><g fill="#ffffff" fill-opacity="1"><g transform="translate(193.96906, 115.847511)"><g><path d="M 23.335938 -3.863281 L 7.640625 -3.863281 C 6.195312 -3.863281 5.457031 -4.484375 5.457031 -5.753906 L 5.457031 -21.183594 L 1.445312 -21.183594 L 1.445312 -5.753906 C 1.445312 -2.390625 4.21875 -0.03125 7.640625 -0.03125 L 23.335938 -0.03125 Z M 23.335938 -3.863281 "/></g></g></g><g fill="#ffffff" fill-opacity="1"><g transform="translate(219.401416, 115.847511)"><g/></g></g><g fill="#ffffff" fill-opacity="1"><g transform="translate(231.616022, 115.847511)"><g><path d="M 27.144531 -21.183594 L 23.160156 -21.183594 L 23.160156 -5.753906 C 23.160156 -4.484375 22.421875 -3.863281 20.976562 -3.863281 L 7.640625 -3.863281 C 6.195312 -3.863281 5.457031 -4.484375 5.457031 -5.753906 L 5.457031 -21.183594 L 1.445312 -21.183594 L 1.445312 -5.753906 C 1.445312 -2.390625 4.21875 -0.03125 7.640625 -0.03125 L 20.976562 -0.03125 C 24.3125 -0.03125 27.144531 -2.417969 27.144531 -5.753906 Z M 27.144531 -21.183594 "/></g></g></g><g fill="#ffffff" fill-opacity="1"><g transform="translate(261.208442, 115.847511)"><g><path d="M 27.144531 -21.183594 L 23.160156 -21.183594 L 23.160156 -5.753906 C 23.160156 -4.484375 22.421875 -3.863281 20.976562 -3.863281 L 18.234375 -3.863281 C 16.757812 -3.863281 16.019531 -4.484375 16.019531 -5.753906 L 16.078125 -15.488281 C 16.109375 -18.851562 13.1875 -21.183594 9.882812 -21.183594 L 7.109375 -21.183594 C 3.777344 -21.183594 0.945312 -18.882812 0.945312 -15.488281 L 0.945312 -0.03125 L 4.957031 -0.03125 L 4.957031 -15.488281 C 4.957031 -16.757812 5.664062 -17.40625 7.109375 -17.40625 L 9.882812 -17.40625 C 11.328125 -17.40625 12.066406 -16.757812 12.066406 -15.488281 L 12.066406 -5.753906 C 12.066406 -2.539062 14.722656 -0.03125 18.234375 -0.03125 L 20.976562 -0.03125 C 24.3125 -0.03125 27.144531 -2.417969 27.144531 -5.753906 Z M 27.144531 -21.183594 "/></g></g></g><g fill="#ffffff" fill-opacity="1"><g transform="translate(290.800862, 115.847511)"><g><path d="M 5.457031 -21.183594 L 1.445312 -21.183594 L 1.445312 -0.03125 L 5.457031 -0.03125 Z M 5.457031 -21.183594 "/></g></g></g><g fill="#ffffff" fill-opacity="1"><g transform="translate(298.766914, 115.847511)"><g><path d="M 26.050781 -21.183594 L 1.445312 -21.183594 L 1.445312 -17.40625 L 11.714844 -17.40625 L 11.714844 -0.03125 L 15.667969 -0.03125 L 15.667969 -17.40625 L 26.050781 -17.40625 Z M 26.050781 -21.183594 "/></g></g></g><g fill="#ffffff" fill-opacity="1"><g transform="translate(326.943139, 115.847511)"><g><path d="M 27.144531 -21.183594 L 23.160156 -21.183594 L 23.160156 -14.515625 C 23.160156 -13.21875 22.421875 -12.570312 20.976562 -12.570312 L 7.640625 -12.570312 C 6.195312 -12.570312 5.457031 -13.21875 5.457031 -14.515625 L 5.457031 -21.183594 L 1.445312 -21.183594 L 1.445312 -14.515625 C 1.445312 -11.0625 4.21875 -8.792969 7.640625 -8.792969 L 12.273438 -8.792969 L 12.273438 -0.03125 L 16.285156 -0.03125 L 16.285156 -8.792969 L 20.976562 -8.792969 C 24.3125 -8.792969 27.144531 -11.09375 27.144531 -14.515625 Z M 27.144531 -21.183594 "/></g></g></g></svg>