<svg xmlns="http://www.w3.org/2000/svg" xmlns:xlink="http://www.w3.org/1999/xlink" width="500" zoomAndPan="magnify" viewBox="0 0 375 155.999997" height="208" preserveAspectRatio="xMidYMid meet" version="1.0"><defs><g/></defs><g fill="#1b3636" fill-opacity="1"><g transform="translate(144.907364, 80.621641)"><g><path d="M 61.234375 0 L 4.421875 0 L 4.421875 -40.5 L 61.234375 -40.5 L 61.234375 -17.796875 L 52.390625 -17.796875 L 52.390625 -31.65625 L 13.265625 -31.65625 L 13.265625 -8.84375 L 61.234375 -8.84375 Z M 61.234375 0 "/></g></g></g><g fill="#3c8d89" fill-opacity="1"><g transform="translate(168.835511, 93.12958)"><g><path d="M 61.234375 0 L 4.421875 0 L 4.421875 -40.5 L 26.828125 -40.5 L 26.828125 -31.65625 L 13.265625 -31.65625 L 13.265625 -8.84375 L 52.390625 -8.84375 L 52.390625 -31.65625 L 38.828125 -31.65625 L 38.828125 -40.5 L 61.234375 -40.5 Z M 61.234375 0 "/></g></g></g><g fill="#1b3636" fill-opacity="1"><g transform="translate(18.815627, 125.84327)"><g><path d="M 26.253906 -3.863281 L 7.640625 -3.863281 C 6.195312 -3.863281 5.457031 -4.484375 5.457031 -5.753906 L 5.457031 -15.484375 C 5.457031 -16.519531 6.578125 -17.402344 7.640625 -17.402344 L 26.253906 -17.402344 L 26.253906 -21.179688 L 7.640625 -21.179688 C 4.511719 -21.179688 1.445312 -18.554688 1.445312 -15.484375 L 1.445312 -5.753906 C 1.445312 -2.390625 4.277344 -0.03125 7.640625 -0.03125 L 26.253906 -0.03125 Z M 26.253906 -3.863281 "/></g></g></g><g fill="#1b3636" fill-opacity="1"><g transform="translate(47.161348, 125.84327)"><g><path d="M 27.136719 -15.484375 C 27.136719 -18.640625 24.039062 -21.179688 20.972656 -21.179688 L 7.640625 -21.179688 C 4.511719 -21.179688 1.445312 -18.640625 1.445312 -15.484375 L 1.445312 -5.753906 C 1.445312 -2.390625 4.21875 -0.03125 7.640625 -0.03125 L 20.972656 -0.03125 C 24.304688 -0.03125 27.136719 -2.417969 27.136719 -5.753906 Z M 23.15625 -5.753906 C 23.15625 -4.484375 22.417969 -3.863281 20.972656 -3.863281 L 7.640625 -3.863281 C 6.195312 -3.863281 5.457031 -4.484375 5.457031 -5.753906 L 5.457031 -15.484375 C 5.457031 -16.519531 6.578125 -17.402344 7.640625 -17.402344 L 20.972656 -17.402344 C 22.035156 -17.402344 23.15625 -16.519531 23.15625 -15.484375 Z M 23.15625 -5.753906 "/></g></g></g><g fill="#1b3636" fill-opacity="1"><g transform="translate(76.657416, 125.84327)"><g><path d="M 27.136719 -21.179688 L 23.15625 -21.179688 L 23.15625 -5.753906 C 23.15625 -4.484375 22.417969 -3.863281 20.972656 -3.863281 L 18.230469 -3.863281 C 16.753906 -3.863281 16.015625 -4.484375 16.015625 -5.753906 L 16.074219 -15.484375 C 16.105469 -18.847656 13.183594 -21.179688 9.882812 -21.179688 L 7.109375 -21.179688 C 3.777344 -21.179688 0.945312 -18.878906 0.945312 -15.484375 L 0.945312 -0.03125 L 4.957031 -0.03125 L 4.957031 -15.484375 C 4.957031 -16.753906 5.664062 -17.402344 7.109375 -17.402344 L 9.882812 -17.402344 C 11.328125 -17.402344 12.066406 -16.753906 12.066406 -15.484375 L 12.066406 -5.753906 C 12.066406 -2.535156 14.71875 -0.03125 18.230469 -0.03125 L 20.972656 -0.03125 C 24.304688 -0.03125 27.136719 -2.417969 27.136719 -5.753906 Z M 27.136719 -21.179688 "/></g></g></g><g fill="#1b3636" fill-opacity="1"><g transform="translate(106.241971, 125.84327)"><g><path d="M 26.046875 -21.179688 L 1.445312 -21.179688 L 1.445312 -17.402344 L 11.710938 -17.402344 L 11.710938 -0.03125 L 15.664062 -0.03125 L 15.664062 -17.402344 L 26.046875 -17.402344 Z M 26.046875 -21.179688 "/></g></g></g><g fill="#1b3636" fill-opacity="1"><g transform="translate(134.41072, 125.84327)"><g><path d="M 27.136719 -6.902344 C 27.136719 -8.257812 26.605469 -9.5 25.574219 -10.617188 C 26.605469 -11.710938 27.136719 -12.917969 27.136719 -14.304688 L 27.136719 -15.457031 C 27.136719 -18.820312 24.335938 -21.148438 20.972656 -21.148438 L 1.296875 -21.148438 L 1.296875 -0.03125 L 5.28125 -0.03125 L 5.28125 -17.375 L 20.972656 -17.375 C 22.417969 -17.375 23.15625 -16.726562 23.15625 -15.457031 L 23.15625 -14.304688 C 23.15625 -13.125 22.417969 -12.535156 20.972656 -12.535156 L 6.519531 -12.535156 L 6.519531 -8.644531 L 20.972656 -8.644531 C 22.125 -8.644531 23.15625 -7.992188 23.15625 -6.902344 L 23.15625 -0.03125 L 27.136719 -0.03125 Z M 27.136719 -6.902344 "/></g></g></g><g fill="#1b3636" fill-opacity="1"><g transform="translate(164.467218, 125.84327)"><g><path d="M 27.136719 -15.484375 C 27.136719 -18.640625 24.039062 -21.179688 20.972656 -21.179688 L 7.640625 -21.179688 C 4.511719 -21.179688 1.445312 -18.640625 1.445312 -15.484375 L 1.445312 -5.753906 C 1.445312 -2.390625 4.21875 -0.03125 7.640625 -0.03125 L 20.972656 -0.03125 C 24.304688 -0.03125 27.136719 -2.417969 27.136719 -5.753906 Z M 23.15625 -5.753906 C 23.15625 -4.484375 22.417969 -3.863281 20.972656 -3.863281 L 7.640625 -3.863281 C 6.195312 -3.863281 5.457031 -4.484375 5.457031 -5.753906 L 5.457031 -15.484375 C 5.457031 -16.519531 6.578125 -17.402344 7.640625 -17.402344 L 20.972656 -17.402344 C 22.035156 -17.402344 23.15625 -16.519531 23.15625 -15.484375 Z M 23.15625 -5.753906 "/></g></g></g><g fill="#1b3636" fill-opacity="1"><g transform="translate(193.963286, 125.84327)"><g><path d="M 23.332031 -3.863281 L 7.640625 -3.863281 C 6.195312 -3.863281 5.457031 -4.484375 5.457031 -5.753906 L 5.457031 -21.179688 L 1.445312 -21.179688 L 1.445312 -5.753906 C 1.445312 -2.390625 4.21875 -0.03125 7.640625 -0.03125 L 23.332031 -0.03125 Z M 23.332031 -3.863281 "/></g></g></g><g fill="#1b3636" fill-opacity="1"><g transform="translate(219.388887, 125.84327)"><g/></g></g><g fill="#1b3636" fill-opacity="1"><g transform="translate(231.600259, 125.84327)"><g><path d="M 27.136719 -21.179688 L 23.15625 -21.179688 L 23.15625 -5.753906 C 23.15625 -4.484375 22.417969 -3.863281 20.972656 -3.863281 L 7.640625 -3.863281 C 6.195312 -3.863281 5.457031 -4.484375 5.457031 -5.753906 L 5.457031 -21.179688 L 1.445312 -21.179688 L 1.445312 -5.753906 C 1.445312 -2.390625 4.21875 -0.03125 7.640625 -0.03125 L 20.972656 -0.03125 C 24.304688 -0.03125 27.136719 -2.417969 27.136719 -5.753906 Z M 27.136719 -21.179688 "/></g></g></g><g fill="#1b3636" fill-opacity="1"><g transform="translate(261.184813, 125.84327)"><g><path d="M 27.136719 -21.179688 L 23.15625 -21.179688 L 23.15625 -5.753906 C 23.15625 -4.484375 22.417969 -3.863281 20.972656 -3.863281 L 18.230469 -3.863281 C 16.753906 -3.863281 16.015625 -4.484375 16.015625 -5.753906 L 16.074219 -15.484375 C 16.105469 -18.847656 13.183594 -21.179688 9.882812 -21.179688 L 7.109375 -21.179688 C 3.777344 -21.179688 0.945312 -18.878906 0.945312 -15.484375 L 0.945312 -0.03125 L 4.957031 -0.03125 L 4.957031 -15.484375 C 4.957031 -16.753906 5.664062 -17.402344 7.109375 -17.402344 L 9.882812 -17.402344 C 11.328125 -17.402344 12.066406 -16.753906 12.066406 -15.484375 L 12.066406 -5.753906 C 12.066406 -2.535156 14.71875 -0.03125 18.230469 -0.03125 L 20.972656 -0.03125 C 24.304688 -0.03125 27.136719 -2.417969 27.136719 -5.753906 Z M 27.136719 -21.179688 "/></g></g></g><g fill="#1b3636" fill-opacity="1"><g transform="translate(290.769367, 125.84327)"><g><path d="M 5.457031 -21.179688 L 1.445312 -21.179688 L 1.445312 -0.03125 L 5.457031 -0.03125 Z M 5.457031 -21.179688 "/></g></g></g><g fill="#1b3636" fill-opacity="1"><g transform="translate(298.73331, 125.84327)"><g><path d="M 26.046875 -21.179688 L 1.445312 -21.179688 L 1.445312 -17.402344 L 11.710938 -17.402344 L 11.710938 -0.03125 L 15.664062 -0.03125 L 15.664062 -17.402344 L 26.046875 -17.402344 Z M 26.046875 -21.179688 "/></g></g></g><g fill="#1b3636" fill-opacity="1"><g transform="translate(326.902048, 125.84327)"><g><path d="M 27.136719 -21.179688 L 23.15625 -21.179688 L 23.15625 -14.511719 C 23.15625 -13.214844 22.417969 -12.566406 20.972656 -12.566406 L 7.640625 -12.566406 C 6.195312 -12.566406 5.457031 -13.214844 5.457031 -14.511719 L 5.457031 -21.179688 L 1.445312 -21.179688 L 1.445312 -14.511719 C 1.445312 -11.0625 4.21875 -8.789062 7.640625 -8.789062 L 12.269531 -8.789062 L 12.269531 -0.03125 L 16.28125 -0.03125 L 16.28125 -8.789062 L 20.972656 -8.789062 C 24.304688 -8.789062 27.136719 -11.089844 27.136719 -14.511719 Z M 27.136719 -21.179688 "/></g></g></g></svg>