<svg xmlns="http://www.w3.org/2000/svg" xmlns:xlink="http://www.w3.org/1999/xlink" width="260" zoomAndPan="magnify" viewBox="0 0 194.87999 195.000001" height="260" preserveAspectRatio="xMidYMid meet" version="1.0"><defs><g/><clipPath id="8209d5adc2"><path d="M 0.4375 0 L 194.324219 0 L 194.324219 194.003906 L 0.4375 194.003906 Z M 0.4375 0 " clip-rule="nonzero"/></clipPath></defs><g clip-path="url(#8209d5adc2)"><path fill="#ffffff" d="M 0.4375 0 L 194.441406 0 L 194.441406 194.003906 L 0.4375 194.003906 Z M 0.4375 0 " fill-opacity="1" fill-rule="nonzero"/><path fill="#e9f5f5" d="M 0.4375 0 L 194.441406 0 L 194.441406 194.003906 L 0.4375 194.003906 Z M 0.4375 0 " fill-opacity="1" fill-rule="nonzero"/><path fill="#e9f5f5" d="M 0.4375 0 L 194.441406 0 L 194.441406 194.003906 L 0.4375 194.003906 Z M 0.4375 0 " fill-opacity="1" fill-rule="nonzero"/></g><g fill="#1b3636" fill-opacity="1"><g transform="translate(7.537926, 128.929246)"><g><path d="M 127.109375 0 L 9.1875 0 L 9.1875 -84.0625 L 127.109375 -84.0625 L 127.109375 -36.921875 L 108.75 -36.921875 L 108.75 -65.703125 L 27.546875 -65.703125 L 27.546875 -18.359375 L 127.109375 -18.359375 Z M 127.109375 0 "/></g></g></g><g fill="#3c8d89" fill-opacity="1"><g transform="translate(56.184403, 156.842725)"><g><path d="M 127.109375 0 L 9.1875 0 L 9.1875 -84.0625 L 55.703125 -84.0625 L 55.703125 -65.703125 L 27.546875 -65.703125 L 27.546875 -18.359375 L 108.75 -18.359375 L 108.75 -65.703125 L 80.59375 -65.703125 L 80.59375 -84.0625 L 127.109375 -84.0625 Z M 127.109375 0 "/></g></g></g></svg>