<svg xmlns="http://www.w3.org/2000/svg" xmlns:xlink="http://www.w3.org/1999/xlink" width="260" zoomAndPan="magnify" viewBox="0 0 194.87999 195.000001" height="260" preserveAspectRatio="xMidYMid meet" version="1.0"><defs><g/><clipPath id="fd88fe2634"><path d="M 0.4375 0 L 194.324219 0 L 194.324219 194.003906 L 0.4375 194.003906 Z M 0.4375 0 " clip-rule="nonzero"/></clipPath></defs><g clip-path="url(#fd88fe2634)"><path fill="#ffffff" d="M 0.4375 0 L 194.441406 0 L 194.441406 194.003906 L 0.4375 194.003906 Z M 0.4375 0 " fill-opacity="1" fill-rule="nonzero"/><path fill="#e9f5f5" d="M 0.4375 0 L 194.441406 0 L 194.441406 194.003906 L 0.4375 194.003906 Z M 0.4375 0 " fill-opacity="1" fill-rule="nonzero"/><path stroke-linecap="butt" transform="matrix(0.746173, 0, 0, 0.746173, 0.437443, 0.00000994898)" fill-opacity="1" fill="#e9f5f5" fill-rule="nonzero" stroke-linejoin="miter" d="M 0.0000757436 -0.0000133333 L 259.998483 -0.0000133333 L 259.998483 259.998394 L 0.0000757436 259.998394 Z M 0.0000757436 -0.0000133333 " stroke="#295150" stroke-width="30" stroke-opacity="1" stroke-miterlimit="4"/></g><g fill="#1b3636" fill-opacity="1"><g transform="translate(19.837953, 120.963875)"><g><path d="M 105.6875 0 L 7.640625 0 L 7.640625 -69.890625 L 105.6875 -69.890625 L 105.6875 -30.703125 L 90.421875 -30.703125 L 90.421875 -54.625 L 22.90625 -54.625 L 22.90625 -15.265625 L 105.6875 -15.265625 Z M 105.6875 0 "/></g></g></g><g fill="#3c8d89" fill-opacity="1"><g transform="translate(60.284412, 144.17216)"><g><path d="M 105.6875 0 L 7.640625 0 L 7.640625 -69.890625 L 46.3125 -69.890625 L 46.3125 -54.625 L 22.90625 -54.625 L 22.90625 -15.265625 L 90.421875 -15.265625 L 90.421875 -54.625 L 67.015625 -54.625 L 67.015625 -69.890625 L 105.6875 -69.890625 Z M 105.6875 0 "/></g></g></g></svg>